<svg xmlns="http://www.w3.org/2000/svg" viewBox="0.0 0.0 200.0 200.0" height="200.0px" width="200.0px"><path fill="#472A66" fill-opacity="1.0"  filling="0" d="M96.96965026855469 33.897369384765625 C116.20034790039062 19.933685302734375 136.24754333496094 36.10210037231445 136.24754333496094 36.10210037231445 A21.966140747070312 21.966140747070312 0.0 0 1 156.6622772216797 42.02227783203125 C174.01473999023438 58.88491439819336 162.66403198242188 91.30332946777344 142.65771484375 100.4491195678711 C125.14193725585938 108.61490631103516 94.4791259765625 97.71350860595703 86.39491271972656 81.54508972167969 A37.56298065185547 37.56298065185547 0.0 0 1 96.96965026855469 33.897369384765625 Z"></path>
<path fill="#73D36E" fill-opacity="1.0"  filling="0" d="M112.36228942871094 91.13999938964844 C112.36228942871094 91.13999938964844 112.60736846923828 58.02737045288086 143.1885986328125 49.7391242980957 C171.44244384765625 42.10403060913086 188.4273681640625 51.41315460205078 188.4273681640625 51.41315460205078 C188.4273681640625 51.41315460205078 182.0172119140625 69.45965576171875 153.60000610351562 85.17894744873047 A54.8338623046875 54.8338623046875 0.0 0 1 112.36228942871094 91.13999938964844 Z"></path>
<path fill="#472A66" fill-opacity="1.0"  filling="0" d="M136.65579223632812 76.48228454589844 A20.04719352722168 20.04719352722168 0.0 0 0 121.8756103515625 77.62544250488281 C111.62736511230469 81.70841979980469 101.46088409423828 95.59034729003906 103.42070007324219 117.35245513916016 C105.05386352539062 135.72561645507812 113.62806701660156 160.38665771484375 128.93911743164062 171.451416015625 C145.2708740234375 183.08770751953125 163.92982482910156 182.96527099609375 172.5040283203125 179.33140563964844 C184.99774169921875 174.023681640625 197.0015869140625 155.5687713623047 195.94000244140625 135.2357940673828 C194.4701690673828 109.3499984741211 173.89210510253906 76.97228240966797 156.29473876953125 73.01174926757812 A22.08859634399414 22.08859634399414 0.0 0 0 136.65579223632812 76.48228454589844 Z"></path>
<path fill="#8875A0" fill-opacity="1.0"  filling="0" d="M149.27210998535156 88.20034790039062 A40.82929992675781 40.82929992675781 0.0 0 0 136.6149139404297 76.44140625 A14.861929893493652 14.861929893493652 0.0 0 1 139.96298217773438 74.31842041015625 A53.486488342285156 53.486488342285156 0.0 0 1 153.35508728027344 87.75122833251953 A86.51736450195312 86.51736450195312 0.0 0 1 166.62457275390625 117.18912506103516 A83.57772064208984 83.57772064208984 0.0 0 1 167.44122314453125 148.62771606445312 A172.95315551757812 172.95315551757812 0.0 0 0 163.35824584960938 118.5364990234375 A82.31193542480469 82.31193542480469 0.0 0 0 149.27210998535156 88.20034790039062 Z"></path>
<path fill="#FFFFFF" fill-opacity="1.0"  filling="0" d="M135.18597412109375 151.0366668701172 A97.54122924804688 97.54122924804688 0.0 0 1 128.12245178222656 140.1761474609375 C125.59105682373047 135.31736755371094 124.03947448730469 139.0736846923828 125.26438903808594 142.33999633789062 A43.891578674316406 43.891578674316406 0.0 0 0 133.4303436279297 153.5680694580078 C138.73806762695312 159.03929138183594 142.9026336669922 161.73403930664062 143.10684204101562 161.12158203125 C143.31105041503906 160.50912475585938 138.81982421875 156.05877685546875 135.18597412109375 151.0366668701172 Z M121.54894256591797 130.94859313964844 A2.817193031311035 2.817193031311035 0.0 0 0 120.77315521240234 134.2966766357422 A2.368070125579834 2.368070125579834 0.0 0 0 123.5903549194336 135.68490600585938 C124.77456665039062 135.19491577148438 124.77456665039062 133.888427734375 124.20280456542969 132.58175659179688 C123.6312255859375 131.2752685546875 122.48806762695312 130.4178924560547 121.54894256591797 130.94859313964844 Z"></path>
<path fill="#73D36E" fill-opacity="1.0"  filling="0" d="M103.99227905273438 71.41947174072266 C103.99227905273438 71.41947174072266 107.42192840576172 38.75596237182617 77.94316101074219 26.956314086914062 C50.750877380371094 16.1773681640625 32.66351318359375 23.52666473388672 32.66351318359375 23.52666473388672 C32.66351318359375 23.52666473388672 37.03227615356445 42.18561553955078 63.489646911621094 60.967193603515625 A54.8338623046875 54.8338623046875 0.0 0 0 103.99227905273438 71.41947174072266 Z"></path>
<path fill="#472A66" fill-opacity="1.0"  filling="0" d="M88.6405258178711 53.98526382446289 C88.6405258178711 53.98526382446289 94.9282455444336 52.18877410888672 104.97227478027344 58.0682487487793 C115.62876892089844 64.31509399414062 124.28456115722656 81.87175750732422 118.0377197265625 105.67526245117188 C112.77070617675781 125.80420684814453 98.64368438720703 151.6491241455078 79.53561401367188 161.03982543945312 C59.40666961669922 170.96139526367188 38.46122741699219 167.28683471679688 29.642105102539062 161.65228271484375 C16.73999786376953 153.48648071289062 6.736846923828125 130.62193298339844 11.840522766113281 108.20667266845703 C18.250701904296875 79.58525848388672 47.15789031982422 47.534210205078125 67.49087524414062 46.43192672729492 C82.27105712890625 45.615264892578125 88.6405258178711 53.98526382446289 88.6405258178711 53.98526382446289 Z"></path>
<path fill="#8875A0" fill-opacity="1.0"  filling="0" d="M72.39035034179688 64.68263244628906 A45.89210510253906 45.89210510253906 0.0 0 1 88.72210693359375 53.98526382446289 A16.7808780670166 16.7808780670166 0.0 0 0 85.37420654296875 51.00473403930664 A60.30491256713867 60.30491256713867 0.0 0 0 68.0217514038086 63.253509521484375 A97.58210754394531 97.58210754394531 0.0 0 0 47.60701370239258 93.50807189941406 A94.23421478271484 94.23421478271484 0.0 0 0 40.82929611206055 128.5805206298828 A195.04176330566406 195.04176330566406 0.0 0 1 50.87333297729492 95.9170150756836 A92.80509185791016 92.80509185791016 0.0 0 1 72.39035034179688 64.68263244628906 Z"></path>
<path fill="#FFFFFF" fill-opacity="1.0"  filling="0" d="M27.110702514648438 88.48613739013672 A47.72947692871094 47.72947692871094 0.0 0 0 20.41474151611328 102.00070190429688 C17.924034118652344 109.92157745361328 17.47490692138672 115.35175323486328 18.250701904296875 115.14771270751953 C19.0264892578125 114.9435043334961 20.904563903808594 108.57421112060547 23.844383239746094 102.44982147216797 A106.15631866455078 106.15631866455078 0.0 0 1 30.499473571777344 90.20087432861328 C34.01087951660156 85.13806915283203 29.560523986816406 85.54649353027344 27.110702514648438 88.48613739013672 Z M36.052276611328125 79.05455780029297 A3.0622806549072266 3.0622806549072266 0.0 0 0 32.45929718017578 80.03438568115234 A2.5722806453704834 2.5722806453704834 0.0 0 0 32.45929718017578 83.42333221435547 C33.5208740234375 84.28070068359375 34.78666687011719 83.42333221435547 35.725608825683594 82.40263366699219 C36.664737701416016 81.38175964355469 37.15473175048828 79.83035278320312 36.052276611328125 79.05455780029297 Z"></path>
<path fill="#604D42" fill-opacity="1.0"  filling="0" d="M16.331756591796875 74.31842041015625 A2.0414035320281982 2.0414035320281982 0.0 0 0 19.148941040039062 73.70596313476562 C31.39771270751953 54.51613998413086 48.831932067871094 40.67490768432617 61.32561492919922 39.98087692260742 C74.71772003173828 39.286842346191406 80.47456359863281 46.513511657714844 80.71965026855469 46.921932220458984 A2.0414035320281982 2.0414035320281982 0.0 1 0 83.94508361816406 44.43122863769531 A17.515789031982422 17.515789031982422 0.0 0 0 80.71965026855469 41.40982437133789 A36.09315872192383 36.09315872192383 0.0 0 1 91.82526397705078 27.20122528076172 C109.54508209228516 14.340003967285156 127.8775405883789 28.7528076171875 128.5715789794922 29.365264892578125 A2.0414035320281982 2.0414035320281982 0.0 0 0 130.4498291015625 29.732635498046875 A19.965614318847656 19.965614318847656 0.0 0 1 148.98631286621094 35.081398010253906 A2.0414035320281982 2.0414035320281982 0.0 0 0 151.84439086914062 32.141578674316406 A24.007719039916992 24.007719039916992 0.0 0 0 130.36807250976562 25.486495971679688 C126.28508758544922 22.587539672851562 107.42192840576172 10.787895202636719 89.53877258300781 23.812461853027344 A36.746490478515625 36.746490478515625 0.0 0 0 81.65876770019531 31.488418579101562 A42.46245574951172 42.46245574951172 0.0 0 0 67.7359619140625 22.424209594726562 C40.094383239746094 11.604385375976562 21.84368133544922 18.83123016357422 21.067893981933594 19.117019653320312 A2.0414035320281982 2.0414035320281982 0.0 0 0 19.842987060546875 21.485084533691406 C19.842987060546875 21.97509002685547 22.782806396484375 33.48894500732422 36.62385559082031 47.534210205078125 A104.7271957397461 104.7271957397461 0.0 0 0 15.678421020507812 71.41947174072266 A2.0414035320281982 2.0414035320281982 0.0 0 0 16.331756591796875 74.31842041015625 Z M24.497543334960938 22.424209594726562 C29.560523986816406 20.995262145996094 44.91228103637695 18.014732360839844 66.30683898925781 26.50719451904297 A38.25701904296875 38.25701904296875 0.0 0 1 79.53561401367188 35.122100830078125 A41.40087890625 41.40087890625 0.0 0 0 77.33070373535156 39.20508575439453 A30.581228256225586 30.581228256225586 0.0 0 0 60.999122619628906 35.979644775390625 A41.564212799072266 41.564212799072266 0.0 0 0 39.890350341796875 45.002803802490234 A65.7761459350586 65.7761459350586 0.0 0 1 24.497543334960938 22.424209594726562 Z M11.677192687988281 82.6066665649414 A2.0414035320281982 2.0414035320281982 0.0 0 0 14.412811279296875 81.74929809570312 L15.637718200683594 79.46280670166016 A2.0414035320281982 2.0414035320281982 0.0 0 0 12.248771667480469 77.50298309326172 L10.983154296875 79.87105560302734 A2.0414035320281982 2.0414035320281982 0.0 0 0 11.677192687988281 82.6066665649414 Z"></path>
<path fill="#604D42" fill-opacity="1.0"  filling="0" d="M191.61209106445312 126.62069702148438 A85.37421417236328 85.37421417236328 0.0 0 0 163.03158569335938 70.64368438720703 A59.0392951965332 59.0392951965332 0.0 0 0 179.3633270263672 49.534912109375 A2.0414035320281982 2.0414035320281982 0.0 0 0 178.465087890625 46.921932220458984 C177.7301788330078 46.513511657714844 160.41842651367188 37.32701873779297 131.71543884277344 45.08456039428711 A40.82929992675781 40.82929992675781 0.0 0 0 110.23930358886719 59.17070388793945 A30.009647369384766 30.009647369384766 0.0 0 0 99.70526123046875 48.02421188354492 A2.0414035320281982 2.0414035320281982 0.0 0 0 97.62297821044922 51.53561019897461 C107.62613677978516 57.414913177490234 115.7103500366211 74.07333374023438 109.87174987792969 96.85614013671875 C104.52315521240234 116.33175659179688 90.6412353515625 141.6868438720703 72.26789855957031 150.75088500976562 C53.07807159423828 160.14158630371094 32.66351318359375 156.83438110351562 24.497543334960938 151.44491577148438 C12.248771667480469 143.80982971191406 2.4905242919921875 122.04788970947266 7.430877685546875 100.0 A69.6140365600586 69.6140365600586 0.0 0 1 10.656494140625 89.71105194091797 A2.0414035320281982 2.0414035320281982 0.0 0 0 6.8592987060546875 88.20034790039062 A73.73771667480469 73.73771667480469 0.0 0 0 3.4296493530273438 99.10175323486328 C-1.9189453125 122.86439514160156 8.982460021972656 146.5045623779297 22.17034912109375 154.91543579101562 A48.260353088378906 48.260353088378906 0.0 0 0 46.66789245605469 160.83578491210938 A61.77473831176758 61.77473831176758 0.0 0 0 74.023681640625 154.42543029785156 C93.53999328613281 144.78982543945312 108.23860168457031 118.29158020019531 113.58719635009766 97.75438690185547 A53.608951568603516 53.608951568603516 0.0 0 0 112.1991195678711 63.253509521484375 A36.746490478515625 36.746490478515625 0.0 0 1 132.61367797851562 49.3306999206543 C154.6615753173828 43.36964797973633 169.7275390625 48.06509017944336 174.627197265625 50.02490997314453 A62.63228225708008 62.63228225708008 0.0 0 1 159.72439575195312 68.31649017333984 A29.846315383911133 29.846315383911133 0.0 0 0 150.25192260742188 63.947723388671875 A32.29596710205078 32.29596710205078 0.0 0 0 122.65139770507812 70.48035430908203 A2.0414035320281982 2.0414035320281982 0.0 0 0 125.34614562988281 73.54263305664062 A28.58052635192871 28.58052635192871 0.0 0 1 149.31298828125 67.90806579589844 C166.42034912109375 71.99105072021484 186.05929565429688 102.32719421386719 187.40667724609375 126.98825073242188 C188.50912475585938 146.70877075195312 176.75018310546875 164.2245635986328 165.19561767578125 169.08334350585938 C157.02964782714844 172.51296997070312 138.86053466796875 172.39035034179688 123.6312255859375 161.4482421875 A2.0414035320281982 2.0414035320281982 0.0 1 0 121.2631607055664 164.7552490234375 A54.79298400878906 54.79298400878906 0.0 0 0 153.15087890625 175.16683959960938 A36.41982650756836 36.41982650756836 0.0 0 0 166.82876586914062 172.8394775390625 C179.6491241455078 167.28683471679688 192.83702087402344 148.13772583007812 191.61209106445312 126.62069702148438 Z"></path>
<path fill="#604D42" fill-opacity="1.0"  filling="0" d="M117.01683807373047 155.03790283203125 A2.0414035320281982 2.0414035320281982 0.0 1 0 113.91386413574219 157.69192504882812 L115.13877868652344 159.0800018310547 A2.0414035320281982 2.0414035320281982 0.0 0 0 118.11930084228516 156.30368041992188 L117.01683807373047 155.03790283203125 Z M108.56526947021484 142.0950927734375 A2.0414035320281982 2.0414035320281982 0.0 1 0 104.93140411376953 143.9324493408203 A76.26929473876953 76.26929473876953 0.0 0 0 109.01438903808594 151.3224639892578 A2.0414035320281982 2.0414035320281982 0.0 1 0 112.44403839111328 149.07684326171875 A69.85894775390625 69.85894775390625 0.0 0 1 108.56526947021484 142.0950927734375 Z"></path></svg>