<svg xmlns="http://www.w3.org/2000/svg" viewBox="0.0 0.0 200.0 200.0" height="200.0px" width="200.0px"><path fill="#FFC4DA" fill-opacity="1.0"  filling="0" d="M78.41796875 57.089839935302734 L109.66796875 57.089839935302734 C110.0 57.089839935302734 110.25390625 57.34375 110.25390625 57.675777435302734 L110.25390625 63.320316314697266 C110.25390625 63.65234375 110.0 63.906253814697266 109.66796875 63.906253814697266 L78.41796875 63.906253814697266 C78.0859375 63.906253814697266 77.83203125 63.65234375 77.83203125 63.320316314697266 L77.83203125 57.675777435302734 C77.83203125 57.363285064697266 78.0859375 57.089839935302734 78.41796875 57.089839935302734 Z M53.61328125 129.7265625 C54.51171875 151.7578125 63.632808685302734 168.3203125 77.9296875 179.8046875 C78.1640625 180.0 78.45703125 180.09765625 78.76953125 180.09765625 L129.31640625 180.09765625 C129.62890625 180.09765625 129.921875 180.0 130.15625 179.8046875 C143.61328125 168.9453125 152.48046875 150.3125 154.23828125 129.70703125 C154.31640625 128.671875 153.26171875 127.9296875 152.32421875 128.3984375 C144.0625 132.5390625 131.30859375 142.96875 104.19921875 134.1796875 C77.734375 125.60546875 61.9921875 126.2109375 54.5703125 128.3984375 C53.984375 128.57421875 53.59375 129.12109375 53.61328125 129.7265625 Z"></path>
<path fill="#F8196D" fill-opacity="1.0"  filling="0" d="M66.6796875 173.2421875 C66.15234375 173.2421875 65.625 173.0859375 65.1953125 172.79296875 C57.734375 167.91015625 51.484375 160.8984375 47.128902435302734 152.5 C42.65625 143.88671875 40.292964935302734 134.04296875 40.292964935302734 124.00390625 C40.292964935302734 122.8515625 41.015625 121.8359375 42.08984375 121.4453125 C42.36328125 121.34765625 48.84765625 119.00390625 58.4765625 117.8125 C67.3828125 116.71875 80.76171875 116.4453125 93.984375 121.46484375 C117.1875 130.25390625 135.9375 121.640625 136.1328125 121.54296875 C136.97265625 121.15234375 137.96875 121.2109375 138.75 121.69921875 C139.53125 122.20703125 140.01953125 123.06640625 140.01953125 124.00390625 C140.01953125 134.04296875 137.65625 143.90625 133.18359375 152.5 C128.828125 160.8984375 122.578125 167.91015625 115.11719512939453 172.79296875 C114.66796112060547 173.0859375 114.16015625 173.2421875 113.6328125 173.2421875 L66.6796875 173.2421875 Z M45.78125 125.99609375 C46.3671875 143.18359375 54.5703125 158.984375 67.51953125 167.8125 L112.79296875 167.8125 C125.234375 159.3359375 133.28125 144.4140625 134.4140625 128.02734375 C127.1875 130.3515625 111.05467987060547 133.7890625 92.03125 126.58203125 C72.36328125 119.12109375 51.894535064697266 124.16015625 45.78125 125.99609375 Z M47.519527435302734 105.29296112060547 L47.519527435302734 104.4921875 C47.519527435302734 103.14452362060547 48.61328125 102.07030487060547 49.941410064697266 102.07030487060547 C51.2890625 102.07030487060547 52.36328125 103.1640625 52.36328125 104.4921875 L52.36328125 105.29296112060547 C52.36328125 106.640625 51.26953125 107.71484375 49.941410064697266 107.71484375 C48.61328125 107.73436737060547 47.519527435302734 106.640625 47.519527435302734 105.29296112060547 Z M53.6328125 99.19921875 C53.3203125 99.19921875 52.988277435302734 99.12109375 52.695308685302734 98.96484375 C51.7578125 98.4375 51.406253814697266 97.265625 51.93359375 96.30859375 C52.265625 95.703125 60.25390625 81.328125 68.2421875 77.40234375 C69.21875 76.93359375 70.37109375 77.32421875 70.859375 78.30078125 C71.328125 79.27734375 70.9375 80.44921875 69.9609375 80.91796875 C67.16796875 82.28515625 63.76953125 85.68359375 60.13671875 90.7421875 C57.32421875 94.66796875 55.37109375 98.1640625 55.3515625 98.203125 C54.98046875 98.828125 54.31640625 99.19921875 53.6328125 99.19921875 Z"></path>
<path fill="#F8196D" fill-opacity="1.0"  filling="0" d="M138.828125 86.46484375 C132.1484375 75.48828125 122.8515625 67.109375 111.953125 62.20703125 L111.79688262939453 62.12890625 L111.79688262939453 54.47265625 C111.79688262939453 51.8359375 109.64844512939453 49.70703125 107.03125 49.70703125 L105.54688262939453 49.70703125 L105.54688262939453 38.10546875 L126.6015625 38.10546875 C128.10546875 38.10546875 129.3359375 36.89453125 129.3359375 35.37109375 C129.3359375 33.8671875 128.10546875 32.63671875 126.6015625 32.63671875 L105.54688262939453 32.63671875 L105.54688262939453 28.984375 C105.54688262939453 26.34765625 103.39844512939453 24.21875 100.78125 24.21875 L79.51171875 24.21875 C76.875 24.21875 74.74609375 26.3671875 74.74609375 28.984375 L74.74609375 33.65234375 L68.359375 33.65234375 C66.85546875 33.65234375 65.625 34.86328125 65.625 36.386714935302734 L65.625 39.9609375 C65.625 41.464839935302734 66.8359375 42.6953125 68.359375 42.6953125 L74.7265625 42.6953125 L74.7265625 49.70703125 L73.2421875 49.70703125 C70.60546875 49.70703125 68.4765625 51.85546875 68.4765625 54.47265625 L68.4765625 62.12890625 L68.3203125 62.20703125 C57.421875 67.109375 48.125 75.48828125 41.445316314697266 86.46484375 C34.6484375 97.63671875 31.0546875 110.7421875 31.0546875 124.35546875 C31.0546875 136.26953125 33.8671875 147.98828125 39.1796875 158.203125 C44.35546875 168.1640625 51.7578125 176.484375 60.605464935302734 182.265625 L61.289058685302734 182.71484375 L119.0234375 182.71484375 L119.70703125 182.265625 C128.5546875 176.484375 135.95703125 168.1640625 141.1328125 158.203125 C146.4453125 147.98828125 149.2578125 136.2890625 149.2578125 124.35546875 C149.21875 110.72266387939453 145.625 97.6171875 138.828125 86.46484375 Z M73.92578125 55.136714935302734 L106.34765625 55.136714935302734 L106.34765625 61.953128814697266 L73.92578125 61.953128814697266 L73.92578125 55.136714935302734 Z M80.17578125 29.66796875 L100.07813262939453 29.66796875 L100.07813262939453 49.570308685302734 L80.17578125 49.570308685302734 L80.17578125 29.66796875 Z M136.26953125 155.6640625 C131.66015625 164.55078125 125.13671875 171.9921875 117.36328125 177.2265625 L62.91015625 177.2265625 C55.15625 171.97265625 48.61328125 164.53125 44.003902435302734 155.6640625 C39.101566314697266 146.2109375 36.50390625 135.390625 36.50390625 124.3359375 C36.50390625 111.71875 39.82421875 99.609375 46.09375 89.27734375 C52.089847564697266 79.43359375 60.3515625 71.875 70.01953125 67.40234375 L110.25390625 67.40234375 C119.921875 71.875 128.18359375 79.43359375 134.1796875 89.27734375 C140.46875 99.58984375 143.76953125 111.71875 143.76953125 124.3359375 C143.76953125 135.390625 141.171875 146.23046875 136.26953125 155.6640625 Z"></path>
<path fill="#F8196D" fill-opacity="1.0"  filling="0" d="M147.20703125 54.47265625 C135.21484375 54.47265625 125.44921875 46.132816314697266 125.44921875 35.87890625 C125.44921875 25.625 135.21484375 17.28515625 147.20703125 17.28515625 C159.19921875 17.28515625 168.9453125 25.64453125 168.9453125 35.8984375 C168.9453125 46.132816314697266 159.19921875 54.47265625 147.20703125 54.47265625 Z M147.20703125 21.2109375 C137.36328125 21.2109375 129.35546875 27.79296875 129.35546875 35.8984375 C129.35546875 44.003902435302734 137.36328125 50.5859375 147.20703125 50.5859375 C157.05078125 50.5859375 165.05859375 44.003902435302734 165.05859375 35.8984375 C165.05859375 27.79296875 157.03125 21.2109375 147.20703125 21.2109375 Z"></path>
<path fill="#F8196D" fill-opacity="1.0"  filling="0" d="M50.859375 40.488277435302734 L38.18359375 40.488277435302734 C37.109375 40.488277435302734 36.23046875 39.609371185302734 36.23046875 38.535152435302734 C36.23046875 37.460933685302734 37.109375 36.582027435302734 38.18359375 36.582027435302734 L50.859375 36.582027435302734 C51.93359375 36.582027435302734 52.8125 37.460933685302734 52.8125 38.535152435302734 C52.8125 39.609371185302734 51.93359375 40.488277435302734 50.859375 40.488277435302734 Z M56.953125 29.55078125 C56.699214935302734 29.55078125 56.4453125 29.4921875 56.191410064697266 29.39453125 L45.761714935302734 25.0 C44.765628814697266 24.58984375 44.296871185302734 23.4375 44.7265625 22.44140625 C45.13671875 21.4453125 46.2890625 20.9765625 47.28515625 21.40625 L57.71484375 25.80078125 C58.7109375 26.2109375 59.1796875 27.36328125 58.749996185302734 28.359375 C58.437503814697266 29.1015625 57.71484375 29.55078125 56.953125 29.55078125 Z M46.523441314697266 53.88671875 C45.742191314697266 53.88671875 45.0 53.3984375 44.687496185302734 52.6171875 C44.296871185302734 51.601566314697266 44.8046875 50.48828125 45.8203125 50.09765625 L56.25 46.132816314697266 C57.265628814697266 45.742191314697266 58.37890625 46.249996185302734 58.76953125 47.265625 C59.16015625 48.281253814697266 58.652339935302734 49.39453125 57.63671875 49.78515625 L47.207035064697266 53.750003814697266 C46.9921875 53.847660064697266 46.7578125 53.88671875 46.523441314697266 53.88671875 Z M59.042964935302734 40.488277435302734 L56.503902435302734 40.488277435302734 C55.429683685302734 40.488277435302734 54.550777435302734 39.609371185302734 54.550777435302734 38.535152435302734 C54.550777435302734 37.460933685302734 55.429683685302734 36.582027435302734 56.503902435302734 36.582027435302734 L59.042964935302734 36.582027435302734 C60.117183685302734 36.582027435302734 60.996089935302734 37.460933685302734 60.996089935302734 38.535152435302734 C60.996089935302734 39.609371185302734 60.117183685302734 40.488277435302734 59.042964935302734 40.488277435302734 Z"></path>
<path fill="#FFC4DA" fill-opacity="1.0"  filling="0" d="M147.59765625 21.9140625 C137.98828125 21.9140625 130.15625 28.33984375 130.15625 36.25 C130.15625 44.16015625 137.96875 50.5859375 147.59765625 50.5859375 C157.20703125 50.5859375 165.0390625 44.16015625 165.0390625 36.25 C165.0390625 28.33984375 157.2265625 21.9140625 147.59765625 21.9140625 Z"></path></svg>