<svg xmlns="http://www.w3.org/2000/svg" viewBox="0.0 0.0 200.0 200.0" height="200.0px" width="200.0px"><path fill="#FE4F60" fill-opacity="1.0"  filling="0" d="M100.0 0.0 C155.228515625 0.0 200.0 44.771480560302734 200.0 100.0 C200.0 155.228515625 155.228515625 200.0 100.0 200.0 C44.771480560302734 200.0 0.0 155.228515625 0.0 100.0 C0.0 44.771480560302734 44.771480560302734 0.0 100.0 0.0 Z"></path>
<path fill="#E84857" fill-opacity="1.0"  filling="0" d="M200.0 100.0 C200.0 155.228515625 155.228515625 200.0 100.0 200.0 C70.18965148925781 200.0 43.4267578125 186.9568328857422 25.11211395263672 166.26718139648438 C42.75859451293945 181.89218139648438 65.96113586425781 191.37930297851562 91.3792953491211 191.37930297851562 C146.60781860351562 191.37930297851562 191.37930297851562 146.60781860351562 191.37930297851562 91.3792953491211 C191.37930297851562 65.96113586425781 181.89218139648438 42.75859451293945 166.26718139648438 25.11211395263672 C186.9568328857422 43.4267578125 200.0 70.18965148925781 200.0 100.0 Z"></path>
<path fill="#FF6D7A" fill-opacity="1.0"  filling="0" d="M183.23712158203125 44.56465148925781 C167.37069702148438 33.974220275878906 148.30606079101562 27.8017578125 127.80175018310547 27.8017578125 C47.529296875 27.8017578125 0.6896514892578125 117.50507354736328 44.56465148925781 183.23712158203125 C17.6982421875 165.3103485107422 0.0 134.72422790527344 0.0 100.0 C0.0 44.771480560302734 44.771480560302734 0.0 100.0 0.0 C134.72422790527344 0.0 165.3103485107422 17.6982421875 183.23712158203125 44.56465148925781 Z"></path>
<path fill="#F1FAFC" fill-opacity="1.0"  filling="0" d="M27.155075073242188 100.0 A72.84492492675781 72.84492492675781 0.0 1 0 172.8449249267578 100.0 A72.84492492675781 72.84492492675781 0.0 1 0 27.155075073242188 100.0 Z"></path>
<path fill="#4D4E59" fill-opacity="1.0"  filling="0" d="M95.12362670898438 104.8763656616211 L61.287498474121094 71.0400390625 C58.59394836425781 68.34707641601562 58.59394836425781 63.980079650878906 61.287498474121094 61.287109375 C63.98066329956055 58.59355163574219 68.34745788574219 58.59355163574219 71.0404281616211 61.287109375 L93.103515625 83.35038757324219 L93.103515625 69.8275375366211 C93.103515625 66.0189437866211 96.19100952148438 62.931053161621094 100.0 62.931053161621094 C103.80899047851562 62.931053161621094 106.896484375 66.0189437866211 106.896484375 69.8275375366211 L106.896484375 100.0 C106.896484375 106.1314468383789 99.4560546875 109.21073913574219 95.12362670898438 104.8763656616211 Z"></path>
<path fill="#C9EDF2" fill-opacity="1.0"  filling="0" d="M47.41386795043945 100.0 C47.41386795043945 103.81034851074219 44.327537536621094 106.896484375 40.517189025878906 106.896484375 L27.478515625 106.896484375 A73.67460632324219 73.67460632324219 0.0 0 1 27.478515625 93.103515625 L40.517189025878906 93.103515625 C44.327537536621094 93.103515625 47.41386795043945 96.18965148925781 47.41386795043945 100.0 Z M106.896484375 159.48281860351562 L106.896484375 172.521484375 A73.67460632324219 73.67460632324219 0.0 0 1 93.103515625 172.521484375 L93.103515625 159.48281860351562 C93.103515625 155.67247009277344 96.18965148925781 152.5861358642578 100.0 152.5861358642578 C103.81034851074219 152.5861358642578 106.896484375 155.67247009277344 106.896484375 159.48281860351562 Z M172.521484375 106.896484375 L159.48281860351562 106.896484375 C155.67247009277344 106.896484375 152.5861358642578 103.81034851074219 152.5861358642578 100.0 C152.5861358642578 96.18965148925781 155.67247009277344 93.103515625 159.48281860351562 93.103515625 L172.521484375 93.103515625 A73.67460632324219 73.67460632324219 0.0 0 1 172.521484375 106.896484375 Z M106.896484375 27.478515625 L106.896484375 40.517189025878906 C106.896484375 44.327537536621094 103.81034851074219 47.41386795043945 100.0 47.41386795043945 C96.18965148925781 47.41386795043945 93.103515625 44.327537536621094 93.103515625 40.517189025878906 L93.103515625 27.478515625 A73.67460632324219 73.67460632324219 0.0 0 1 106.896484375 27.478515625 Z"></path>
<path fill="#C9EDF2" fill-opacity="1.0"  filling="0" d="M114.74140930175781 28.646484375 C69.95683288574219 34.48711395263672 34.48711395263672 69.95683288574219 28.646484375 114.74140930175781 C18.142189025878906 63.65507888793945 63.25996017456055 18.061134338378906 114.74140930175781 28.646484375 Z"></path></svg>